# xmcd CD database file
#
# Track frame offsets:
#	150
#	10937
#	24489
#	38440
#	68460
#	83916
#	97763
#	122152
#	135712
#	149908
#	163300
#	188064
#	207179
#	230389
#	248867
#	268523
#	297127
#
# Disc length: 4240 seconds
#
# Revision: 0
# Processed by: cddbd v1.5.2PL0 Copyright (c) Steve Scherf et al.
# Submitted via: CDex 1.51
#
DISCID=e8108e11
DTITLE=Various Artist - Ultimate Salsa CD1
DYEAR=2009
DGENRE=Salsa
TTITLE0=01- Beny Moré - Yiri Yiri Bon
TTITLE1=02 - Celina Gonzàlez - Santa Barbara
TTITLE2=03 - Compay Segundo - Voy Pa Mayari
TTITLE3=04 - Ritmo Alegria - Desengados De La Vida
TTITLE4=05 - Ibrahim Ferrer - Ay Candela
TTITLE5=06 - Pérez Prado - Mambo No. 5
TTITLE6=07 - Ritmo Alegria - De Verdad
TTITLE7=08 - Orquesta América - Clases De Cha Cha Cha
TTITLE8=09 - Israel 'Cachao' Lopez - Trombon Criollo
TTITLE9=10 - Rio Combo - Mas Que Nada
TTITLE10=11 - Ritmo Alegria - Asi Se Compone Un Son
TTITLE11=12 - Grupo Fresca - Chan Chan
TTITLE12=13 - Orquesta Revé - Changui Campanero
TTITLE13=14 - Ritmo Alegria - Bongo
TTITLE14=15 - Danza Latina - Oye Como Va
TTITLE15=16 - Adalberto Alvarez and Su Son - El Regresso De Maria
TTITLE16=17 - Ritmo Alegria - El Muñeco
EXTD=YEAR: 2009
EXTT0=
EXTT1=
EXTT2=
EXTT3=
EXTT4=
EXTT5=
EXTT6=
EXTT7=
EXTT8=
EXTT9=
EXTT10=
EXTT11=
EXTT12=
EXTT13=
EXTT14=
EXTT15=
EXTT16=
PLAYORDER=
